<?plantuml 1.2026.2beta3?><svg xmlns="http://www.w3.org/2000/svg" xmlns:xlink="http://www.w3.org/1999/xlink" contentStyleType="text/css" data-diagram-type="SEQUENCE" height="960px" preserveAspectRatio="none" style="width:888px;height:960px;background:#FFFFFF;" version="1.1" viewBox="0 0 888 960" width="888px" zoomAndPan="magnify"><defs/><g><rect fill="#FFFFFF" height="941.7734" style="stroke:#000000;stroke-width:1;" width="594.9819" x="280.2998" y="6"/><text fill="#000000" font-family="Verdana" font-size="13" font-weight="bold" lengthAdjust="spacing" textLength="224.688" x="465.4468" y="18.0669">Twoja Infrastruktura (FinFlow)</text><g><title>API ..NET Core.</title><rect fill="#FFFFFF" height="384.9922" style="stroke:#000000;stroke-width:1;" width="10" x="349.8013" y="177.9922"/></g><g><title>API ..NET Core.</title><rect fill="#FFFFFF" height="187.9297" style="stroke:#000000;stroke-width:1;" width="10" x="349.8013" y="660.25"/></g><g><title>Redis Cache</title><rect fill="#FFFFFF" height="29.1328" style="stroke:#000000;stroke-width:1;" width="10" x="683.2739" y="257.3906"/></g><g><title>Redis Cache</title><rect fill="#FFFFFF" height="29.1328" style="stroke:#000000;stroke-width:1;" width="10" x="683.2739" y="504.7188"/></g><g><title>Redis Cache</title><rect fill="#FFFFFF" height="29.1328" style="stroke:#000000;stroke-width:1;" width="10" x="683.2739" y="724.5156"/></g><g><title>PostgreSQL</title><rect fill="#FFFFFF" height="29.1328" style="stroke:#000000;stroke-width:1;" width="10" x="805.6821" y="381.0547"/></g><g class="participant-lifeline" data-entity-uid="part1" data-qualified-name="Client" id="part1-lifeline"><g><title>Klient .Aplikacja.Web.</title><rect fill="#000000" fill-opacity="0.00000" height="762.4531" width="8" x="86.2324" y="103.7266"/><line style="stroke:#000000;stroke-width:1;stroke-dasharray:5,5;" x1="90" x2="90" y1="103.7266" y2="866.1797"/></g></g><g class="participant-lifeline" data-entity-uid="part2" data-qualified-name="API" id="part2-lifeline"><g><title>API ..NET Core.</title><rect fill="#000000" fill-opacity="0.00000" height="762.4531" width="8" x="350.8013" y="103.7266"/><line style="stroke:#000000;stroke-width:1;stroke-dasharray:5,5;" x1="354.2998" x2="354.2998" y1="103.7266" y2="866.1797"/></g></g><g class="participant-lifeline" data-entity-uid="part3" data-qualified-name="Redis" id="part3-lifeline"><g><title>Redis Cache</title><rect fill="#000000" fill-opacity="0.00000" height="762.4531" width="8" x="684.2739" y="103.7266"/><line style="stroke:#000000;stroke-width:1;stroke-dasharray:5,5;" x1="687.4653" x2="687.4653" y1="103.7266" y2="866.1797"/></g></g><g class="participant-lifeline" data-entity-uid="part4" data-qualified-name="DB" id="part4-lifeline"><g><title>PostgreSQL</title><rect fill="#000000" fill-opacity="0.00000" height="762.4531" width="8" x="806.6821" y="103.7266"/><line style="stroke:#000000;stroke-width:1;stroke-dasharray:5,5;" x1="810.0825" x2="810.0825" y1="103.7266" y2="866.1797"/></g></g><g class="participant participant-head" data-entity-uid="part1" data-qualified-name="Client" id="part1-head"><text fill="#000000" font-family="Verdana" font-size="14" lengthAdjust="spacing" textLength="154.4648" x="10" y="100.4248">Klient (Aplikacja/Web)</text><ellipse cx="90.2324" cy="35.4297" fill="#FFFFFF" rx="8" ry="8" style="stroke:#000000;stroke-width:1;"/><path d="M90.2324,43.4297 L90.2324,70.4297 M77.2324,51.4297 L103.2324,51.4297 M90.2324,70.4297 L77.2324,85.4297 M90.2324,70.4297 L103.2324,85.4297" fill="none" style="stroke:#000000;stroke-width:1;"/></g><g class="participant participant-tail" data-entity-uid="part1" data-qualified-name="Client" id="part1-tail"><text fill="#000000" font-family="Verdana" font-size="14" lengthAdjust="spacing" textLength="154.4648" x="10" y="878.1748">Klient (Aplikacja/Web)</text><ellipse cx="90.2324" cy="890.4766" fill="#FFFFFF" rx="8" ry="8" style="stroke:#000000;stroke-width:1;"/><path d="M90.2324,898.4766 L90.2324,925.4766 M77.2324,906.4766 L103.2324,906.4766 M90.2324,925.4766 L77.2324,940.4766 M90.2324,925.4766 L103.2324,940.4766" fill="none" style="stroke:#000000;stroke-width:1;"/></g><g class="participant participant-head" data-entity-uid="part2" data-qualified-name="API" id="part2-head"><rect fill="#FFFFFF" height="46.5938" rx="2.5" ry="2.5" style="stroke:#000000;stroke-width:1;" width="121.0029" x="294.2998" y="56.1328"/><text fill="#000000" font-family="Verdana" font-size="14" lengthAdjust="spacing" textLength="107.0029" x="301.2998" y="76.1279">API (.NET Core)</text><text fill="#000000" font-family="Verdana" font-size="14" lengthAdjust="spacing" textLength="68.9131" x="320.3447" y="92.4248">[AKS Pod]</text></g><g class="participant participant-tail" data-entity-uid="part2" data-qualified-name="API" id="part2-tail"><rect fill="#FFFFFF" height="46.5938" rx="2.5" ry="2.5" style="stroke:#000000;stroke-width:1;" width="121.0029" x="294.2998" y="865.1797"/><text fill="#000000" font-family="Verdana" font-size="14" lengthAdjust="spacing" textLength="107.0029" x="301.2998" y="885.1748">API (.NET Core)</text><text fill="#000000" font-family="Verdana" font-size="14" lengthAdjust="spacing" textLength="68.9131" x="320.3447" y="901.4717">[AKS Pod]</text></g><g class="participant participant-head" data-entity-uid="part3" data-qualified-name="Redis" id="part3-head"><text fill="#000000" font-family="Verdana" font-size="14" lengthAdjust="spacing" textLength="86.3994" x="642.0742" y="84.1279">Redis Cache</text><text fill="#000000" font-family="Verdana" font-size="14" lengthAdjust="spacing" textLength="97.6172" x="636.4653" y="100.4248">(Pami&#281;&#263; RAM)</text><path d="M670.2739,35.1328 C670.2739,25.1328 688.2739,25.1328 688.2739,25.1328 C688.2739,25.1328 706.2739,25.1328 706.2739,35.1328 L706.2739,61.1328 C706.2739,71.1328 688.2739,71.1328 688.2739,71.1328 C688.2739,71.1328 670.2739,71.1328 670.2739,61.1328 L670.2739,35.1328" fill="#FFFFFF" style="stroke:#000000;stroke-width:1;"/><path d="M670.2739,35.1328 C670.2739,45.1328 688.2739,45.1328 688.2739,45.1328 C688.2739,45.1328 706.2739,45.1328 706.2739,35.1328" fill="none" style="stroke:#000000;stroke-width:1;"/></g><g class="participant participant-tail" data-entity-uid="part3" data-qualified-name="Redis" id="part3-tail"><text fill="#000000" font-family="Verdana" font-size="14" lengthAdjust="spacing" textLength="86.3994" x="642.0742" y="878.1748">Redis Cache</text><text fill="#000000" font-family="Verdana" font-size="14" lengthAdjust="spacing" textLength="97.6172" x="636.4653" y="894.4717">(Pami&#281;&#263; RAM)</text><path d="M670.2739,907.7734 C670.2739,897.7734 688.2739,897.7734 688.2739,897.7734 C688.2739,897.7734 706.2739,897.7734 706.2739,907.7734 L706.2739,933.7734 C706.2739,943.7734 688.2739,943.7734 688.2739,943.7734 C688.2739,943.7734 670.2739,943.7734 670.2739,933.7734 L670.2739,907.7734" fill="#FFFFFF" style="stroke:#000000;stroke-width:1;"/><path d="M670.2739,907.7734 C670.2739,917.7734 688.2739,917.7734 688.2739,917.7734 C688.2739,917.7734 706.2739,917.7734 706.2739,907.7734" fill="none" style="stroke:#000000;stroke-width:1;"/></g><g class="participant participant-head" data-entity-uid="part4" data-qualified-name="DB" id="part4-head"><text fill="#000000" font-family="Verdana" font-size="14" lengthAdjust="spacing" textLength="80.7529" x="767.3057" y="84.1279">PostgreSQL</text><text fill="#000000" font-family="Verdana" font-size="14" lengthAdjust="spacing" textLength="115.1992" x="750.0825" y="100.4248">(Dysk HDD/SSD)</text><path d="M792.6821,35.1328 C792.6821,25.1328 810.6821,25.1328 810.6821,25.1328 C810.6821,25.1328 828.6821,25.1328 828.6821,35.1328 L828.6821,61.1328 C828.6821,71.1328 810.6821,71.1328 810.6821,71.1328 C810.6821,71.1328 792.6821,71.1328 792.6821,61.1328 L792.6821,35.1328" fill="#FFFFFF" style="stroke:#000000;stroke-width:1;"/><path d="M792.6821,35.1328 C792.6821,45.1328 810.6821,45.1328 810.6821,45.1328 C810.6821,45.1328 828.6821,45.1328 828.6821,35.1328" fill="none" style="stroke:#000000;stroke-width:1;"/></g><g class="participant participant-tail" data-entity-uid="part4" data-qualified-name="DB" id="part4-tail"><text fill="#000000" font-family="Verdana" font-size="14" lengthAdjust="spacing" textLength="80.7529" x="767.3057" y="878.1748">PostgreSQL</text><text fill="#000000" font-family="Verdana" font-size="14" lengthAdjust="spacing" textLength="115.1992" x="750.0825" y="894.4717">(Dysk HDD/SSD)</text><path d="M792.6821,907.7734 C792.6821,897.7734 810.6821,897.7734 810.6821,897.7734 C810.6821,897.7734 828.6821,897.7734 828.6821,907.7734 L828.6821,933.7734 C828.6821,943.7734 810.6821,943.7734 810.6821,943.7734 C810.6821,943.7734 792.6821,943.7734 792.6821,933.7734 L792.6821,907.7734" fill="#FFFFFF" style="stroke:#000000;stroke-width:1;"/><path d="M792.6821,907.7734 C792.6821,917.7734 810.6821,917.7734 810.6821,917.7734 C810.6821,917.7734 828.6821,917.7734 828.6821,907.7734" fill="none" style="stroke:#000000;stroke-width:1;"/></g><g><title>API ..NET Core.</title><rect fill="#FFFFFF" height="384.9922" style="stroke:#000000;stroke-width:1;" width="10" x="349.8013" y="177.9922"/></g><g><title>API ..NET Core.</title><rect fill="#FFFFFF" height="187.9297" style="stroke:#000000;stroke-width:1;" width="10" x="349.8013" y="660.25"/></g><g><title>Redis Cache</title><rect fill="#FFFFFF" height="29.1328" style="stroke:#000000;stroke-width:1;" width="10" x="683.2739" y="257.3906"/></g><g><title>Redis Cache</title><rect fill="#FFFFFF" height="29.1328" style="stroke:#000000;stroke-width:1;" width="10" x="683.2739" y="504.7188"/></g><g><title>Redis Cache</title><rect fill="#FFFFFF" height="29.1328" style="stroke:#000000;stroke-width:1;" width="10" x="683.2739" y="724.5156"/></g><g><title>PostgreSQL</title><rect fill="#FFFFFF" height="29.1328" style="stroke:#000000;stroke-width:1;" width="10" x="805.6821" y="381.0547"/></g><rect fill="#FFFFFF" height="3" style="stroke:#FFFFFF;stroke-width:1;" width="876.2817" x="5" y="134.293"/><line style="stroke:#000000;stroke-width:0.5;" x1="5" x2="881.2817" y1="134.293" y2="134.293"/><line style="stroke:#000000;stroke-width:0.5;" x1="5" x2="881.2817" y1="137.293" y2="137.293"/><rect fill="#FFFFFF" height="23.1328" style="stroke:#000000;stroke-width:1;" width="454.7368" x="215.7725" y="123.7266"/><text fill="#000000" font-family="Verdana" font-size="13" font-weight="bold" lengthAdjust="spacing" textLength="436.2109" x="221.7725" y="139.7935">SCENARIUSZ 1: PIERWSZE ZAPYTANIE (Cache Miss - Wolno)</text><g class="message" data-entity-1="part1" data-entity-2="part2" id="msg1"><polygon fill="#000000" points="337.8013,173.9922,347.8013,177.9922,337.8013,181.9922,341.8013,177.9922" style="stroke:#000000;stroke-width:1;"/><line style="stroke:#000000;stroke-width:1;" x1="90.2324" x2="343.8013" y1="177.9922" y2="177.9922"/><text fill="#000000" font-family="Verdana" font-size="13" font-weight="bold" lengthAdjust="spacing" textLength="9.0454" x="97.2324" y="172.9263">1</text><text fill="#000000" font-family="Verdana" font-size="13" lengthAdjust="spacing" textLength="167.6797" x="110.2778" y="172.9263">GET /api/balance/user123</text></g><path d="M364,190.9922 L364,230.9922 L574,230.9922 L574,200.9922 L564,190.9922 L364,190.9922" fill="#FFFFFF" style="stroke:#000000;stroke-width:1;"/><path d="M564,190.9922 L564,200.9922 L574,200.9922 L564,190.9922" fill="#FFFFFF" style="stroke:#000000;stroke-width:1;"/><text fill="#000000" font-family="Verdana" font-size="13" lengthAdjust="spacing" textLength="189.7695" x="370" y="208.0591">KROK 1: Sprawdzamy Cache.</text><text fill="#000000" font-family="Verdana" font-size="13" lengthAdjust="spacing" textLength="163.5474" x="370" y="223.1919">Klucz: "balance:user123"</text><g class="message" data-entity-1="part2" data-entity-2="part3" id="msg2"><polygon fill="#000000" points="671.2739,253.3906,681.2739,257.3906,671.2739,261.3906,675.2739,257.3906" style="stroke:#000000;stroke-width:1;"/><line style="stroke:#000000;stroke-width:1;" x1="359.8013" x2="677.2739" y1="257.3906" y2="257.3906"/><text fill="#000000" font-family="Verdana" font-size="13" font-weight="bold" lengthAdjust="spacing" textLength="9.0454" x="366.8013" y="252.3247">2</text><text fill="#000000" font-family="Verdana" font-size="13" lengthAdjust="spacing" textLength="151.0488" x="379.8467" y="252.3247">GET "balance:user123"</text></g><g class="message" data-entity-1="part3" data-entity-2="part2" id="msg3"><polygon fill="#000000" points="370.8013,282.5234,360.8013,286.5234,370.8013,290.5234,366.8013,286.5234" style="stroke:#000000;stroke-width:1;"/><line style="stroke:#000000;stroke-width:1;stroke-dasharray:2,2;" x1="364.8013" x2="687.2739" y1="286.5234" y2="286.5234"/><text fill="#000000" font-family="Verdana" font-size="13" font-weight="bold" lengthAdjust="spacing" textLength="9.0454" x="376.8013" y="281.4575">3</text><text fill="#000000" font-family="Verdana" font-size="13" lengthAdjust="spacing" textLength="61.9531" x="389.8467" y="281.4575">(null / nil)</text></g><path d="M364,299.5234 L364,354.5234 L559,354.5234 L559,309.5234 L549,299.5234 L364,299.5234" fill="#FFC0CB" style="stroke:#000000;stroke-width:1;"/><path d="M549,299.5234 L549,309.5234 L559,309.5234 L549,299.5234" fill="#FFC0CB" style="stroke:#000000;stroke-width:1;"/><text fill="#000000" font-family="Verdana" font-size="13" lengthAdjust="spacing" textLength="131.5806" x="370" y="316.5903">Cache MISS (Pud&#322;o)!</text><text fill="#000000" font-family="Verdana" font-size="13" lengthAdjust="spacing" textLength="172.3198" x="370" y="331.7231">Danych nie ma w pami&#281;ci.</text><text fill="#000000" font-family="Verdana" font-size="13" lengthAdjust="spacing" textLength="174.4399" x="370" y="346.856">Musimy zapyta&#263; baz&#281; SQL.</text><g class="message" data-entity-1="part2" data-entity-2="part4" id="msg4"><polygon fill="#000000" points="793.6821,377.0547,803.6821,381.0547,793.6821,385.0547,797.6821,381.0547" style="stroke:#000000;stroke-width:1;"/><line style="stroke:#000000;stroke-width:1;" x1="359.8013" x2="799.6821" y1="381.0547" y2="381.0547"/><text fill="#000000" font-family="Verdana" font-size="13" font-weight="bold" lengthAdjust="spacing" textLength="9.0454" x="366.8013" y="375.9888">4</text><text fill="#000000" font-family="Verdana" font-size="13" lengthAdjust="spacing" textLength="289.5293" x="379.8467" y="375.9888">SELECT balance FROM users WHERE id=123</text></g><g class="message" data-entity-1="part4" data-entity-2="part2" id="msg5"><polygon fill="#000000" points="370.8013,406.1875,360.8013,410.1875,370.8013,414.1875,366.8013,410.1875" style="stroke:#000000;stroke-width:1;"/><line style="stroke:#000000;stroke-width:1;stroke-dasharray:2,2;" x1="364.8013" x2="809.6821" y1="410.1875" y2="410.1875"/><text fill="#000000" font-family="Verdana" font-size="13" font-weight="bold" lengthAdjust="spacing" textLength="9.0454" x="376.8013" y="405.1216">5</text><text fill="#000000" font-family="Verdana" font-size="13" lengthAdjust="spacing" textLength="122.8652" x="389.8467" y="405.1216">Wynik: 500.00 PLN</text></g><path d="M364,423.1875 L364,478.1875 L579,478.1875 L579,433.1875 L569,423.1875 L364,423.1875" fill="#ADD8E6" style="stroke:#000000;stroke-width:1;"/><path d="M569,423.1875 L569,433.1875 L579,433.1875 L569,423.1875" fill="#ADD8E6" style="stroke:#000000;stroke-width:1;"/><text fill="#000000" font-family="Verdana" font-size="13" lengthAdjust="spacing" textLength="175.2207" x="370" y="440.2544">KROK 2: Hydracja Cache'a.</text><text fill="#000000" font-family="Verdana" font-size="13" lengthAdjust="spacing" textLength="172.1167" x="370" y="455.3872">Zapisujemy wynik w Redis</text><text fill="#000000" font-family="Verdana" font-size="13" lengthAdjust="spacing" textLength="194.0923" x="370" y="470.52">na przysz&#322;o&#347;&#263; (np. na 60 sek).</text><g class="message" data-entity-1="part2" data-entity-2="part3" id="msg6"><polygon fill="#000000" points="671.2739,500.7188,681.2739,504.7188,671.2739,508.7188,675.2739,504.7188" style="stroke:#000000;stroke-width:1;"/><line style="stroke:#000000;stroke-width:1;" x1="359.8013" x2="677.2739" y1="504.7188" y2="504.7188"/><text fill="#000000" font-family="Verdana" font-size="13" font-weight="bold" lengthAdjust="spacing" textLength="9.0454" x="366.8013" y="499.6528">6</text><text fill="#000000" font-family="Verdana" font-size="13" lengthAdjust="spacing" textLength="291.4272" x="379.8467" y="499.6528">SET "balance:user123" = "500.00", TTL=60s</text></g><g class="message" data-entity-1="part3" data-entity-2="part2" id="msg7"><polygon fill="#000000" points="370.8013,529.8516,360.8013,533.8516,370.8013,537.8516,366.8013,533.8516" style="stroke:#000000;stroke-width:1;"/><line style="stroke:#000000;stroke-width:1;stroke-dasharray:2,2;" x1="364.8013" x2="687.2739" y1="533.8516" y2="533.8516"/><text fill="#000000" font-family="Verdana" font-size="13" font-weight="bold" lengthAdjust="spacing" textLength="9.0454" x="376.8013" y="528.7856">7</text><text fill="#000000" font-family="Verdana" font-size="13" lengthAdjust="spacing" textLength="18.7573" x="389.8467" y="528.7856">OK</text></g><g class="message" data-entity-1="part2" data-entity-2="part1" id="msg8"><polygon fill="#000000" points="101.2324,558.9844,91.2324,562.9844,101.2324,566.9844,97.2324,562.9844" style="stroke:#000000;stroke-width:1;"/><line style="stroke:#000000;stroke-width:1;stroke-dasharray:2,2;" x1="95.2324" x2="353.8013" y1="562.9844" y2="562.9844"/><text fill="#000000" font-family="Verdana" font-size="13" font-weight="bold" lengthAdjust="spacing" textLength="9.0454" x="107.2324" y="557.9185">8</text><text fill="#000000" font-family="Verdana" font-size="13" lengthAdjust="spacing" textLength="213.478" x="120.2778" y="557.9185">Response: { "balance": 500.00 }</text></g><rect fill="#FFFFFF" height="3" style="stroke:#FFFFFF;stroke-width:1;" width="876.2817" x="5" y="616.5508"/><line style="stroke:#000000;stroke-width:0.5;" x1="5" x2="881.2817" y1="616.5508" y2="616.5508"/><line style="stroke:#000000;stroke-width:0.5;" x1="5" x2="881.2817" y1="619.5508" y2="619.5508"/><rect fill="#FFFFFF" height="23.1328" style="stroke:#000000;stroke-width:1;" width="430.2729" x="228.0044" y="605.9844"/><text fill="#000000" font-family="Verdana" font-size="13" font-weight="bold" lengthAdjust="spacing" textLength="411.7471" x="234.0044" y="622.0513">SCENARIUSZ 2: DRUGIE ZAPYTANIE (Cache Hit - Szybko)</text><g class="message" data-entity-1="part1" data-entity-2="part2" id="msg9"><polygon fill="#000000" points="337.8013,656.25,347.8013,660.25,337.8013,664.25,341.8013,660.25" style="stroke:#000000;stroke-width:1;"/><line style="stroke:#000000;stroke-width:1;" x1="90.2324" x2="343.8013" y1="660.25" y2="660.25"/><text fill="#000000" font-family="Verdana" font-size="13" font-weight="bold" lengthAdjust="spacing" textLength="9.0454" x="97.2324" y="655.1841">9</text><text fill="#000000" font-family="Verdana" font-size="13" lengthAdjust="spacing" textLength="167.6797" x="110.2778" y="655.1841">GET /api/balance/user123</text></g><path d="M364,673.25 L364,698.25 L639,698.25 L639,683.25 L629,673.25 L364,673.25" fill="#FFFFFF" style="stroke:#000000;stroke-width:1;"/><path d="M629,673.25 L629,683.25 L639,683.25 L629,673.25" fill="#FFFFFF" style="stroke:#000000;stroke-width:1;"/><text fill="#000000" font-family="Verdana" font-size="13" lengthAdjust="spacing" textLength="254.8901" x="370" y="690.3169">KROK 1: Ponownie sprawdzamy Cache.</text><g class="message" data-entity-1="part2" data-entity-2="part3" id="msg10"><polygon fill="#000000" points="671.2739,720.5156,681.2739,724.5156,671.2739,728.5156,675.2739,724.5156" style="stroke:#000000;stroke-width:1;"/><line style="stroke:#000000;stroke-width:1;" x1="359.8013" x2="677.2739" y1="724.5156" y2="724.5156"/><text fill="#000000" font-family="Verdana" font-size="13" font-weight="bold" lengthAdjust="spacing" textLength="18.0908" x="366.8013" y="719.4497">10</text><text fill="#000000" font-family="Verdana" font-size="13" lengthAdjust="spacing" textLength="151.0488" x="388.8921" y="719.4497">GET "balance:user123"</text></g><g class="message" data-entity-1="part3" data-entity-2="part2" id="msg11"><polygon fill="#000000" points="370.8013,749.6484,360.8013,753.6484,370.8013,757.6484,366.8013,753.6484" style="stroke:#000000;stroke-width:1;"/><line style="stroke:#000000;stroke-width:1;stroke-dasharray:2,2;" x1="364.8013" x2="687.2739" y1="753.6484" y2="753.6484"/><text fill="#000000" font-family="Verdana" font-size="13" font-weight="bold" lengthAdjust="spacing" textLength="18.0908" x="376.8013" y="748.5825">11</text><text fill="#000000" font-family="Verdana" font-size="13" lengthAdjust="spacing" textLength="57.4463" x="398.8921" y="748.5825">"500.00"</text></g><path d="M364,766.6484 L364,821.6484 L580,821.6484 L580,776.6484 L570,766.6484 L364,766.6484" fill="#90EE90" style="stroke:#000000;stroke-width:1;"/><path d="M570,766.6484 L570,776.6484 L580,776.6484 L570,766.6484" fill="#90EE90" style="stroke:#000000;stroke-width:1;"/><text fill="#000000" font-family="Verdana" font-size="13" lengthAdjust="spacing" textLength="142.8857" x="370" y="783.7153">Cache HIT (Trafienie)!</text><text fill="#000000" font-family="Verdana" font-size="13" lengthAdjust="spacing" textLength="81.3389" x="370" y="798.8481">Mamy dane!</text><text fill="#000000" font-family="Verdana" font-size="13" font-weight="bold" lengthAdjust="spacing" textLength="195.5586" x="370" y="813.981">Baza SQL jest ignorowana.</text><g class="message" data-entity-1="part2" data-entity-2="part1" id="msg12"><polygon fill="#000000" points="101.2324,844.1797,91.2324,848.1797,101.2324,852.1797,97.2324,848.1797" style="stroke:#000000;stroke-width:1;"/><line style="stroke:#000000;stroke-width:1;stroke-dasharray:2,2;" x1="95.2324" x2="353.8013" y1="848.1797" y2="848.1797"/><text fill="#000000" font-family="Verdana" font-size="13" font-weight="bold" lengthAdjust="spacing" textLength="18.0908" x="107.2324" y="843.1138">12</text><text fill="#000000" font-family="Verdana" font-size="13" lengthAdjust="spacing" textLength="213.478" x="129.3232" y="843.1138">Response: { "balance": 500.00 }</text></g><?plantuml-src jPFFRjf04CRlVeg9SwX13T1KpS4IbG0x0V4dhkq8bQQ7mTw41RDhUUrIQ7hffSyGzNMIz-gk3JG5eafLomdlpixCx_jcZj89cHE88wHCmopbB9kFIQ9f6AGy0RqRKS9IC1fnH6SOJB4w9EEI3YYWbLzfO_uPT7_1fmWTTfEWI9DibcO9Wd5EsNd45pByU3YXAT50_c9CKXhG66LQlU5qmAWCR1zQF26bQ_QXqVN0uU77l8Iypj-4cE8O1G7T9I6LfJ6Oa6jcE3Yd3_SFty5jz8kcylkTDmuNwMr2l7Sz-SHQYXcqBQlgULRnn6fgX8KWEJIjNWUlPGyQRkVA6y4h4voExGwzaGsZXlFURmmwDXXvTUXJ8U04XZnYl0JrkgOLWi39MzMt2HUIgeenhOunGXQGQYP8ykhqjPAMViAKv7WQu_9VGcydAV2RDN7NlUogwbwSu29SuNnP85VKNPG5AnFqTLPpdLNF8LGoJLEgoYvoBOe-zgEtJHIA5RgUR7etM1P5K0L6ev8MaftWlPRXsA5i9fjRIzFnF32SB7pynaj7yjX2jWmcCXk1ES92pe3oBQ2Afvy9AlbM62zJb5QESVLm3zAioZwHrPIQs3sxvSCQ2CxTopueAW73jktQGCFwRo9BUwtcBxBXaj6P2MzgjKgj1avly1HFnXw2wwclPfIHZJMd9hINOQBseK1-WGfb9DqMsPH8d8Kg8qatyyWGucIr52ifoUCFYMcmkA9EpseWoAnKUTO-xv1zK0UzGD1VWk_twcSryGTBBxlxHXQbP4GnkgOy5Z5dWfZmPLjKtwhrzMc6V7ZlxkvsbqPgOxbN5vq3AzEcSZl0Mot7i_-sCWvdVA46JUpjphzSa8tw1pHzRe0k4aBOTaVQ7HyCFy4RAG0b-PRqLQyXCg8-okKchb3j0Ko9I87UCfxm1JAibCkxA7_ju4y0?></g></svg>