<?plantuml 1.2026.2beta3?><svg xmlns="http://www.w3.org/2000/svg" xmlns:xlink="http://www.w3.org/1999/xlink" contentStyleType="text/css" data-diagram-type="DESCRIPTION" height="1294px" preserveAspectRatio="none" style="width:2992px;height:1294px;background:#FFFFFF;" version="1.1" viewBox="0 0 2992 1294" width="2992px" zoomAndPan="magnify"><defs/><g><!--cluster Azure Cloud (Subscription)--><g class="cluster" data-qualified-name="Azure Cloud .Subscription." data-source-line="3" id="ent0002"><path d="M181.788,158.0785 C236.9547,76.8001 309.8455,92.4488 353.8688,170.141 C421.1957,72.0447 505.4838,77.5058 565.2487,178.1826 C617.3083,78.7007 691.0879,86.714 745.71,175.7293 C801.4642,65.7397 863.8841,88.1851 935.6742,158.8688 C1010.449,90.6947 1073.0649,91.4147 1125.4305,185.1347 C1183.0182,94.0922 1256.3053,80.3313 1324.1724,174.0791 C1373.2885,76.6982 1442.9541,69.6232 1507.3226,159.1319 C1559.4942,91.031 1642.1744,89.2173 1682.8801,172.4345 C1750.5767,57.5045 1841.3878,70.3675 1899.4314,181.6743 C1943.8478,104.2411 2028.129,113.2364 2070.6798,183.8325 C2124.4761,86.9707 2223.8907,91.4404 2278.3996,183.047 C2326.5952,94.1969 2416.4402,97.5986 2466.5609,180.9434 C2508.8412,103.1836 2598.8,97.5035 2648.3577,172.2693 C2691.7349,78.8414 2773.1868,63.5813 2829.6107,159.8 C2836.4824,152.8963 2843.4907,154.7589 2847.1707,163.4044 C2985.875,254.529 2969.8765,343.1331 2842.8658,429.9664 C2954.6077,497.5314 2954.5565,597.8097 2859.3062,679.0375 C2980.4013,738.4696 2958.7118,848.4473 2858.2294,906.8321 C2972.3133,1004.3534 2939.0553,1078.8501 2822.6107,1141.36 C2847.2294,1137.6196 2856.8033,1153.2491 2846.957,1174.6867 C2782.8842,1263.3559 2711.9192,1255.1436 2663.8664,1158.8304 C2613.3792,1257.2728 2514.8229,1256.2516 2464.382,1158.7832 C2392.79,1267.6739 2314.0421,1261.8305 2252.5213,1149.1532 C2203.7986,1238.6442 2144.6981,1240.8793 2080.6397,1165.1026 C2023.2067,1244.6181 1951.3701,1257.8169 1901.3216,1157.7298 C1847.3155,1252.2141 1777.5054,1282.009 1699.0359,1183.3514 C1633.5577,1264.6405 1570.8622,1259.1438 1516.8987,1170.9753 C1471.8431,1257.708 1378.6361,1261.3884 1328.8101,1176.1941 C1272.987,1287.3389 1169.6481,1268.7856 1114.7988,1175.1762 C1049.4809,1251.8393 963.5033,1254.9662 923.2181,1148.927 C885.9559,1228.1494 800.6791,1243.7653 748.3469,1165.6795 C689.1306,1252.3259 616.2833,1262.8909 560.8712,1161.8791 C505.5604,1258.605 413.4422,1244.2256 371.413,1148.7847 C291.7215,1258.705 212.3447,1241.9612 146.6107,1134.36 C165.1231,1127.0328 173.9425,1135.7541 174.564,1153.9525 C64.341,1082.8676 62.9006,968.6648 166.6932,891.1698 C53.5093,829.661 56.7073,731.3996 155.2663,659.449 C68.3181,593.298 52.1546,481.6361 174.7265,433.533 C52.6268,356.9226 6,249.6971 153.6107,152.8 C163.3969,141.6916 176.5579,144.8652 181.788,158.0785" fill="none" style="stroke:#181818;stroke-width:1;"/><text fill="#000000" font-family="sans-serif" font-size="14" font-weight="bold" lengthAdjust="spacing" textLength="212.0781" x="1382.0716" y="170.7951">Azure Cloud (Subscription)</text></g><!--cluster Management & Security--><g class="cluster" data-qualified-name="Azure Cloud .Subscription..Management . Security" data-source-line="6" id="ent0003"><path d="M165.1107,826.62 L356.4847,826.62 A3.75,3.75 0 0 1 358.9847,829.12 L365.9847,848.9169 L852.1107,848.9169 A2.5,2.5 0 0 1 854.6107,851.4169 L854.6107,930.41 A2.5,2.5 0 0 1 852.1107,932.91 L165.1107,932.91 A2.5,2.5 0 0 1 162.6107,930.41 L162.6107,829.12 A2.5,2.5 0 0 1 165.1107,826.62" fill="none" style="stroke:#000000;stroke-width:1.5;"/><line style="stroke:#000000;stroke-width:1.5;" x1="162.6107" x2="365.9847" y1="848.9169" y2="848.9169"/><text fill="#000000" font-family="sans-serif" font-size="14" font-weight="bold" lengthAdjust="spacing" textLength="190.374" x="166.6107" y="841.6151">Management &amp; Security</text></g><!--cluster VNET: vnet-finflow (10.0.0.0/16)--><g class="cluster" data-qualified-name="Azure Cloud .Subscription..VNET. vnet-finflow .10.0.0.0.16." data-source-line="12" id="ent0007"><path d="M881.1107,187.8 L1136.5648,187.8 A3.75,3.75 0 0 1 1139.0648,190.3 L1146.0648,210.0969 L2633.1107,210.0969 A2.5,2.5 0 0 1 2635.6107,212.5969 L2635.6107,967.56 A2.5,2.5 0 0 1 2633.1107,970.06 L881.1107,970.06 A2.5,2.5 0 0 1 878.6107,967.56 L878.6107,190.3 A2.5,2.5 0 0 1 881.1107,187.8" fill="none" style="stroke:#000000;stroke-width:1.5;"/><line style="stroke:#000000;stroke-width:1.5;" x1="878.6107" x2="1146.0648" y1="210.0969" y2="210.0969"/><text fill="#000000" font-family="sans-serif" font-size="14" font-weight="bold" lengthAdjust="spacing" textLength="254.4541" x="882.6107" y="202.7951">VNET: vnet-finflow (10.0.0.0/16)</text></g><!--cluster Subnet: snet-agw (10.0.1.0/24)--><g class="cluster" data-qualified-name="Azure Cloud .Subscription..VNET. vnet-finflow .10.0.0.0.16..Subnet. snet-agw .10.0.1.0.24." data-source-line="15" id="ent0008"><rect fill="none" height="122.59" rx="2.5" ry="2.5" style="stroke:#181818;stroke-width:1;" width="427" x="902.6107" y="230.8"/><path d="M1158.9368,230.8 L1158.9368,240.0969 L1148.9368,250.0969 L902.6107,250.0969" fill="none" style="stroke:#181818;stroke-width:1;"/><text fill="#000000" font-family="sans-serif" font-size="14" font-weight="bold" lengthAdjust="spacing" textLength="246.3262" x="905.6107" y="244.7951">Subnet: snet-agw (10.0.1.0/24)</text></g><!--cluster Subnet: snet-aks (10.0.2.0/24)--><g class="cluster" data-qualified-name="Azure Cloud .Subscription..VNET. vnet-finflow .10.0.0.0.16..Subnet. snet-aks .10.0.2.0.24." data-source-line="21" id="ent0013"><rect fill="none" height="375.23" rx="2.5" ry="2.5" style="stroke:#181818;stroke-width:1;" width="876" x="902.6107" y="402.39"/><path d="M1153.6253,402.39 L1153.6253,411.6869 L1143.6253,421.6869 L902.6107,421.6869" fill="none" style="stroke:#181818;stroke-width:1;"/><text fill="#000000" font-family="sans-serif" font-size="14" font-weight="bold" lengthAdjust="spacing" textLength="241.0146" x="905.6107" y="416.3851">Subnet: snet-aks (10.0.2.0/24)</text></g><!--cluster AKS Cluster--><g class="cluster" data-qualified-name="Azure Cloud .Subscription..VNET. vnet-finflow .10.0.0.0.16..Subnet. snet-aks .10.0.2.0.24..AKS Cluster" data-source-line="23" id="ent0017"><polygon fill="none" points="1144.6107,455.39,1154.6107,445.39,1754.6107,445.39,1754.6107,743.62,1744.6107,753.62,1144.6107,753.62,1144.6107,455.39" style="stroke:#181818;stroke-width:1;"/><line style="stroke:#181818;stroke-width:1;" x1="1744.6107" x2="1754.6107" y1="455.39" y2="445.39"/><line style="stroke:#181818;stroke-width:1;" x1="1144.6107" x2="1744.6107" y1="455.39" y2="455.39"/><line style="stroke:#181818;stroke-width:1;" x1="1744.6107" x2="1744.6107" y1="455.39" y2="753.62"/><text fill="#000000" font-family="sans-serif" font-size="14" font-weight="bold" lengthAdjust="spacing" textLength="93.1055" x="1399.0579" y="471.3851">AKS Cluster</text></g><!--cluster Workload--><g class="cluster" data-qualified-name="Azure Cloud .Subscription..VNET. vnet-finflow .10.0.0.0.16..Subnet. snet-aks .10.0.2.0.24..AKS Cluster.Workload" data-source-line="24" id="ent0018"><path d="M1171.1107,623.32 L1247.2718,623.32 A3.75,3.75 0 0 1 1249.7718,625.82 L1256.7718,645.6169 L1563.1107,645.6169 A2.5,2.5 0 0 1 1565.6107,648.1169 L1565.6107,727.12 A2.5,2.5 0 0 1 1563.1107,729.62 L1171.1107,729.62 A2.5,2.5 0 0 1 1168.6107,727.12 L1168.6107,625.82 A2.5,2.5 0 0 1 1171.1107,623.32" fill="none" style="stroke:#000000;stroke-width:1.5;"/><line style="stroke:#000000;stroke-width:1.5;" x1="1168.6107" x2="1256.7718" y1="645.6169" y2="645.6169"/><text fill="#000000" font-family="sans-serif" font-size="14" font-weight="bold" lengthAdjust="spacing" textLength="75.1611" x="1172.6107" y="638.3151">Workload</text></g><!--cluster Subnet: snet-data (10.0.3.0/24)--><g class="cluster" data-qualified-name="Azure Cloud .Subscription..VNET. vnet-finflow .10.0.0.0.16..Subnet. snet-data .10.0.3.0.24." data-source-line="36" id="ent0023"><rect fill="none" height="335.39" rx="2.5" ry="2.5" style="stroke:#181818;stroke-width:1;" width="809" x="1802.6107" y="610.67"/><path d="M2062.1429,610.67 L2062.1429,619.9669 L2052.1429,629.9669 L1802.6107,629.9669" fill="none" style="stroke:#181818;stroke-width:1;"/><text fill="#000000" font-family="sans-serif" font-size="14" font-weight="bold" lengthAdjust="spacing" textLength="249.5322" x="1805.6107" y="624.6651">Subnet: snet-data (10.0.3.0/24)</text></g><!--cluster Subnet: GatewaySubnet--><g class="cluster" data-qualified-name="Azure Cloud .Subscription..VNET. vnet-finflow .10.0.0.0.16..Subnet. GatewaySubnet" data-source-line="47" id="ent0031"><rect fill="none" height="106.29" rx="2.5" ry="2.5" style="stroke:#181818;stroke-width:1;" width="207" x="1808.6107" y="238.95"/><path d="M2010.1673,238.95 L2010.1673,248.2469 L2000.1673,258.2469 L1808.6107,258.2469" fill="none" style="stroke:#181818;stroke-width:1;"/><text fill="#000000" font-family="sans-serif" font-size="14" font-weight="bold" lengthAdjust="spacing" textLength="191.5566" x="1811.6107" y="252.9451">Subnet: GatewaySubnet</text></g><!--cluster Azure Private DNS Zones--><g class="cluster" data-qualified-name="Azure Cloud .Subscription..Azure Private DNS Zones" data-source-line="53" id="ent0033"><path d="M2026.1107,1019.06 L2224.7923,1019.06 A3.75,3.75 0 0 1 2227.2923,1021.56 L2234.2923,1041.3569 L2811.1107,1041.3569 A2.5,2.5 0 0 1 2813.6107,1043.8569 L2813.6107,1122.86 A2.5,2.5 0 0 1 2811.1107,1125.36 L2026.1107,1125.36 A2.5,2.5 0 0 1 2023.6107,1122.86 L2023.6107,1021.56 A2.5,2.5 0 0 1 2026.1107,1019.06" fill="none" style="stroke:#000000;stroke-width:1.5;"/><line style="stroke:#000000;stroke-width:1.5;" x1="2023.6107" x2="2234.2923" y1="1041.3569" y2="1041.3569"/><text fill="#000000" font-family="sans-serif" font-size="14" font-weight="bold" lengthAdjust="spacing" textLength="197.6816" x="2027.6107" y="1034.0551">Azure Private DNS Zones</text></g><!--entity KV--><g class="entity" data-qualified-name="Azure Cloud .Subscription..Management . Security.KV" data-source-line="7" id="ent0004"><rect fill="#F1F1F1" height="36.2969" rx="2.5" ry="2.5" style="stroke:#181818;stroke-width:0.5;" width="131.5557" x="453.8307" y="880.62"/><text fill="#000000" font-family="sans-serif" font-size="14" lengthAdjust="spacing" textLength="111.5557" x="463.8307" y="903.6151">Azure Key Vault</text></g><!--entity Monitor--><g class="entity" data-qualified-name="Azure Cloud .Subscription..Management . Security.Monitor" data-source-line="8" id="ent0005"><rect fill="#F1F1F1" height="36.2969" rx="2.5" ry="2.5" style="stroke:#181818;stroke-width:0.5;" width="217.9824" x="620.6207" y="880.62"/><text fill="#000000" font-family="sans-serif" font-size="14" lengthAdjust="spacing" textLength="197.9824" x="630.6207" y="903.6151">Azure Monitor / App Insights</text></g><!--entity ACR--><g class="entity" data-qualified-name="Azure Cloud .Subscription..Management . Security.ACR" data-source-line="9" id="ent0006"><rect fill="#F1F1F1" height="36.2969" rx="2.5" ry="2.5" style="stroke:#181818;stroke-width:0.5;" width="239.8779" x="178.6707" y="880.62"/><text fill="#000000" font-family="sans-serif" font-size="14" lengthAdjust="spacing" textLength="219.8779" x="188.6707" y="903.6151">Azure Container Registry (ACR)</text></g><g class="entity" data-qualified-name="Azure Cloud .Subscription..VNET. vnet-finflow .10.0.0.0.16..Subnet. snet-agw .10.0.1.0.24..GMN9" data-source-line="16" id="ent0010"><path d="M918.8407,290.96 L918.8407,331.2256 L1114.3822,331.2256 L1114.3822,300.96 L1104.3822,290.96 L918.8407,290.96" fill="#FEFFDD" style="stroke:#181818;stroke-width:0.5;"/><path d="M1104.3822,290.96 L1104.3822,300.96 L1114.3822,300.96 L1104.3822,290.96" fill="#FEFFDD" style="stroke:#181818;stroke-width:1;"/><text fill="#000000" font-family="sans-serif" font-size="13" lengthAdjust="spacing" textLength="174.5415" x="924.8407" y="308.0269">NSG: Inbound HTTPS (443)</text><text fill="#000000" font-family="sans-serif" font-size="13" lengthAdjust="spacing" textLength="105.2949" x="924.8407" y="323.1597">Source: Internet</text></g><!--entity AppGW--><g class="entity" data-qualified-name="Azure Cloud .Subscription..VNET. vnet-finflow .10.0.0.0.16..Subnet. snet-agw .10.0.1.0.24..AppGW" data-source-line="17" id="ent0012"><rect fill="#F1F1F1" height="52.5938" rx="2.5" ry="2.5" style="stroke:#181818;stroke-width:0.5;" width="164.5186" x="1149.3507" y="284.8"/><text fill="#000000" font-family="sans-serif" font-size="14" lengthAdjust="spacing" textLength="144.5186" x="1159.3507" y="307.7951">Application Gateway</text><text fill="#000000" font-family="sans-serif" font-size="14" lengthAdjust="spacing" textLength="115.0488" x="1159.3507" y="324.092">(WAF - Public IP)</text></g><g class="entity" data-qualified-name="Azure Cloud .Subscription..VNET. vnet-finflow .10.0.0.0.16..Subnet. snet-aks .10.0.2.0.24..GMN14" data-source-line="22" id="ent0015"><path d="M919.1007,507.41 L919.1007,547.6756 L1128.1246,547.6756 L1128.1246,517.41 L1118.1246,507.41 L919.1007,507.41" fill="#FEFFDD" style="stroke:#181818;stroke-width:0.5;"/><path d="M1118.1246,507.41 L1118.1246,517.41 L1128.1246,517.41 L1118.1246,507.41" fill="#FEFFDD" style="stroke:#181818;stroke-width:1;"/><text fill="#000000" font-family="sans-serif" font-size="13" lengthAdjust="spacing" textLength="188.0239" x="925.1007" y="524.4769">NSG: Inbound from snet-agw</text><text fill="#000000" font-family="sans-serif" font-size="13" lengthAdjust="spacing" textLength="117.7744" x="925.1007" y="539.6097">&amp; GatewaySubnet</text></g><!--entity IngPub--><g class="entity" data-qualified-name="Azure Cloud .Subscription..VNET. vnet-finflow .10.0.0.0.16..Subnet. snet-aks .10.0.2.0.24..AKS Cluster.IngPub" data-source-line="30" id="ent0021"><rect fill="#F1F1F1" height="36.2969" rx="2.5" ry="2.5" style="stroke:#181818;stroke-width:0.5;" width="127.8984" x="1182.6607" y="509.39"/><text fill="#000000" font-family="sans-serif" font-size="14" lengthAdjust="spacing" textLength="107.8984" x="1192.6607" y="532.3851">Ingress (Public)</text></g><!--entity IngPriv--><g class="entity" data-qualified-name="Azure Cloud .Subscription..VNET. vnet-finflow .10.0.0.0.16..Subnet. snet-aks .10.0.2.0.24..AKS Cluster.IngPriv" data-source-line="31" id="ent0022"><rect fill="#F1F1F1" height="36.2969" rx="2.5" ry="2.5" style="stroke:#181818;stroke-width:0.5;" width="140.4219" x="1598.4007" y="509.39"/><text fill="#000000" font-family="sans-serif" font-size="14" lengthAdjust="spacing" textLength="120.4219" x="1608.4007" y="532.3851">Ingress (Internal)</text></g><!--entity API--><g class="entity" data-qualified-name="Azure Cloud .Subscription..VNET. vnet-finflow .10.0.0.0.16..Subnet. snet-aks .10.0.2.0.24..AKS Cluster.Workload.API" data-source-line="25" id="ent0019"><rect fill="#F1F1F1" height="36.2969" rx="2.5" ry="2.5" style="stroke:#181818;stroke-width:0.5;" width="142.0283" x="1184.6007" y="677.32"/><text fill="#000000" font-family="sans-serif" font-size="14" lengthAdjust="spacing" textLength="122.0283" x="1194.6007" y="700.3151">Microservices API</text></g><!--entity Dash--><g class="entity" data-qualified-name="Azure Cloud .Subscription..VNET. vnet-finflow .10.0.0.0.16..Subnet. snet-aks .10.0.2.0.24..AKS Cluster.Workload.Dash" data-source-line="26" id="ent0020"><rect fill="#F1F1F1" height="36.2969" rx="2.5" ry="2.5" style="stroke:#181818;stroke-width:0.5;" width="187.0361" x="1362.0907" y="677.32"/><text fill="#000000" font-family="sans-serif" font-size="14" lengthAdjust="spacing" textLength="167.0361" x="1372.0907" y="700.3151">Internal Tools (Grafana)</text></g><g class="entity" data-qualified-name="Azure Cloud .Subscription..VNET. vnet-finflow .10.0.0.0.16..Subnet. snet-data .10.0.3.0.24..GMN24" data-source-line="37" id="ent0025"><path d="M2182.4407,675.34 L2182.4407,715.6056 L2378.7883,715.6056 L2378.7883,685.34 L2368.7883,675.34 L2182.4407,675.34" fill="#FEFFDD" style="stroke:#181818;stroke-width:0.5;"/><path d="M2368.7883,675.34 L2368.7883,685.34 L2378.7883,685.34 L2368.7883,675.34" fill="#FEFFDD" style="stroke:#181818;stroke-width:1;"/><text fill="#000000" font-family="sans-serif" font-size="13" lengthAdjust="spacing" textLength="175.3477" x="2188.4407" y="692.4069">NSG: Deny Internet Access</text><text fill="#000000" font-family="sans-serif" font-size="13" lengthAdjust="spacing" textLength="128.5718" x="2188.4407" y="707.5397">Allow from snet-aks</text></g><!--entity DB--><g class="entity" data-qualified-name="Azure Cloud .Subscription..VNET. vnet-finflow .10.0.0.0.16..Subnet. snet-data .10.0.3.0.24..DB" data-source-line="39" id="ent0027"><path d="M1818.2407,674.67 C1818.2407,664.67 1891.6098,664.67 1891.6098,664.67 C1891.6098,664.67 1964.9789,664.67 1964.9789,674.67 L1964.9789,716.2637 C1964.9789,726.2637 1891.6098,726.2637 1891.6098,726.2637 C1891.6098,726.2637 1818.2407,726.2637 1818.2407,716.2637 L1818.2407,674.67" fill="#F1F1F1" style="stroke:#181818;stroke-width:0.5;"/><path d="M1818.2407,674.67 C1818.2407,684.67 1891.6098,684.67 1891.6098,684.67 C1891.6098,684.67 1964.9789,684.67 1964.9789,674.67" fill="none" style="stroke:#181818;stroke-width:0.5;"/><text fill="#000000" font-family="sans-serif" font-size="14" lengthAdjust="spacing" textLength="80.7529" x="1828.2407" y="701.6651">PostgreSQL</text><text fill="#000000" font-family="sans-serif" font-size="14" lengthAdjust="spacing" textLength="126.7383" x="1828.2407" y="717.962">(Private Endpoint)</text></g><!--entity Redis--><g class="entity" data-qualified-name="Azure Cloud .Subscription..VNET. vnet-finflow .10.0.0.0.16..Subnet. snet-data .10.0.3.0.24..Redis" data-source-line="40" id="ent0028"><path d="M2000.2407,674.67 C2000.2407,664.67 2073.6098,664.67 2073.6098,664.67 C2073.6098,664.67 2146.9789,664.67 2146.9789,674.67 L2146.9789,716.2637 C2146.9789,726.2637 2073.6098,726.2637 2073.6098,726.2637 C2073.6098,726.2637 2000.2407,726.2637 2000.2407,716.2637 L2000.2407,674.67" fill="#F1F1F1" style="stroke:#181818;stroke-width:0.5;"/><path d="M2000.2407,674.67 C2000.2407,684.67 2073.6098,684.67 2073.6098,684.67 C2073.6098,684.67 2146.9789,684.67 2146.9789,674.67" fill="none" style="stroke:#181818;stroke-width:0.5;"/><text fill="#000000" font-family="sans-serif" font-size="14" lengthAdjust="spacing" textLength="86.3994" x="2010.2407" y="701.6651">Redis Cache</text><text fill="#000000" font-family="sans-serif" font-size="14" lengthAdjust="spacing" textLength="126.7383" x="2010.2407" y="717.962">(Private Endpoint)</text></g><!--entity Blob--><g class="entity" data-qualified-name="Azure Cloud .Subscription..VNET. vnet-finflow .10.0.0.0.16..Subnet. snet-data .10.0.3.0.24..Blob" data-source-line="41" id="ent0029"><rect fill="#F1F1F1" height="52.5938" rx="35" ry="35" style="stroke:#181818;stroke-width:0.5;" width="182.3193" x="2413.4507" y="669.17"/><text fill="#000000" font-family="sans-serif" font-size="14" lengthAdjust="spacing" textLength="162.3193" x="2423.4507" y="692.1651">Storage Account (Blob)</text><text fill="#000000" font-family="sans-serif" font-size="14" lengthAdjust="spacing" textLength="126.7383" x="2423.4507" y="708.462">(Private Endpoint)</text></g><!--entity Func--><g class="entity" data-qualified-name="Azure Cloud .Subscription..VNET. vnet-finflow .10.0.0.0.16..Subnet. snet-data .10.0.3.0.24..Func" data-source-line="43" id="ent0030"><polygon fill="#F1F1F1" points="2084.2807,877.47,2094.2807,867.47,2250.9506,867.47,2250.9506,920.0637,2240.9506,930.0637,2084.2807,930.0637,2084.2807,877.47" style="stroke:#181818;stroke-width:0.5;"/><line style="stroke:#181818;stroke-width:0.5;" x1="2240.9506" x2="2250.9506" y1="877.47" y2="867.47"/><line style="stroke:#181818;stroke-width:0.5;" x1="2084.2807" x2="2240.9506" y1="877.47" y2="877.47"/><line style="stroke:#181818;stroke-width:0.5;" x1="2240.9506" x2="2240.9506" y1="877.47" y2="930.0637"/><text fill="#000000" font-family="sans-serif" font-size="14" lengthAdjust="spacing" textLength="112.2256" x="2099.2807" y="900.4651">Azure Functions</text><text fill="#000000" font-family="sans-serif" font-size="14" lengthAdjust="spacing" textLength="126.6699" x="2099.2807" y="916.762">(VNet Integration)</text></g><!--entity VPN--><g class="entity" data-qualified-name="Azure Cloud .Subscription..VNET. vnet-finflow .10.0.0.0.16..Subnet. GatewaySubnet.VPN" data-source-line="48" id="ent0032"><rect fill="#F1F1F1" height="36.2969" rx="2.5" ry="2.5" style="stroke:#181818;stroke-width:0.5;" width="156.3975" x="1833.4107" y="292.95"/><text fill="#000000" font-family="sans-serif" font-size="14" lengthAdjust="spacing" textLength="136.3975" x="1843.4107" y="315.9451">VPN Gateway (P2S)</text></g><!--entity DNS_DB--><g class="entity" data-qualified-name="Azure Cloud .Subscription..Azure Private DNS Zones.DNS_DB" data-source-line="54" id="ent0034"><rect fill="#F1F1F1" height="36.2969" rx="2.5" ry="2.5" style="stroke:#181818;stroke-width:0.5;" width="306.8223" x="2331.2007" y="1073.06"/><text fill="#000000" font-family="sans-serif" font-size="14" lengthAdjust="spacing" textLength="286.8223" x="2341.2007" y="1096.0551">privatelink.postgres.database.azure.com</text></g><!--entity DNS_BLOB--><g class="entity" data-qualified-name="Azure Cloud .Subscription..Azure Private DNS Zones.DNS_BLOB" data-source-line="55" id="ent0035"><rect fill="#F1F1F1" height="36.2969" rx="2.5" ry="2.5" style="stroke:#181818;stroke-width:0.5;" width="256.3047" x="2039.4607" y="1073.06"/><text fill="#000000" font-family="sans-serif" font-size="14" lengthAdjust="spacing" textLength="236.3047" x="2049.4607" y="1096.0551">privatelink.blob.core.windows.net</text></g><!--entity DNS_INT--><g class="entity" data-qualified-name="Azure Cloud .Subscription..Azure Private DNS Zones.DNS_INT" data-source-line="56" id="ent0036"><rect fill="#F1F1F1" height="36.2969" rx="2.5" ry="2.5" style="stroke:#181818;stroke-width:0.5;" width="124.9385" x="2673.1407" y="1073.06"/><text fill="#000000" font-family="sans-serif" font-size="14" lengthAdjust="spacing" textLength="104.9385" x="2683.1407" y="1096.0551">finflow.internal</text></g><!--entity User--><g class="entity" data-qualified-name="User" data-source-line="60" id="ent0037"><ellipse cx="1231.6134" cy="14" fill="#F1F1F1" rx="8" ry="8" style="stroke:#181818;stroke-width:0.5;"/><path d="M1231.6134,22 L1231.6134,49 M1218.6134,30 L1244.6134,30 M1231.6134,49 L1218.6134,64 M1231.6134,49 L1244.6134,64" fill="none" style="stroke:#181818;stroke-width:0.5;"/><text fill="#000000" font-family="sans-serif" font-size="14" lengthAdjust="spacing" textLength="111.1455" x="1176.0407" y="78.4951">Klient (Internet)</text></g><!--entity Admin--><g class="entity" data-qualified-name="Admin" data-source-line="61" id="ent0038"><ellipse cx="1911.6139" cy="14" fill="#F1F1F1" rx="8" ry="8" style="stroke:#181818;stroke-width:0.5;"/><path d="M1911.6139,22 L1911.6139,49 M1898.6139,30 L1924.6139,30 M1911.6139,49 L1898.6139,64 M1911.6139,49 L1924.6139,64" fill="none" style="stroke:#181818;stroke-width:0.5;"/><text fill="#000000" font-family="sans-serif" font-size="14" lengthAdjust="spacing" textLength="115.2266" x="1854.0007" y="78.4951">Pracownik (VPN)</text></g><!--link ACR to GMN9--><g class="link" data-entity-1="ent0006" data-entity-2="ent0010" data-link-type="association" data-source-line="16" id="lnk11"><path d="M318.5307,880.3 C393.5707,814.67 666.9907,577.27 902.6107,394.39 C931.3407,372.09 965.2507,347.87 988.5707,331.52" fill="none" id="ACR-GMN9" style="stroke:#181818;stroke-width:1;stroke-dasharray:7,7;"/></g><!--link AppGW to GMN14--><g class="link" data-entity-1="ent0012" data-entity-2="ent0015" data-link-type="association" data-source-line="22" id="lnk16"><path d="M1203.7007,337.55 C1186.3907,353.56 1163.8607,374.83 1144.6107,394.39 C1106.2107,433.42 1063.4207,481.24 1040.4207,507.32" fill="none" id="AppGW-GMN14" style="stroke:#181818;stroke-width:1;stroke-dasharray:7,7;"/></g><!--link IngPriv to GMN24--><g class="link" data-entity-1="ent0022" data-entity-2="ent0025" data-link-type="association" data-source-line="37" id="lnk26"><path d="M1739.1707,540.45 C1823.3807,554.45 1968.5307,577.9 2093.6107,594.67 C2125.0807,598.89 2135.2507,590.58 2164.6107,602.67 C2204.5007,619.11 2241.9907,653.51 2263.0507,675.21" fill="none" id="IngPriv-GMN24" style="stroke:#181818;stroke-width:1;stroke-dasharray:7,7;"/></g><!--link User to AppGW--><g class="link" data-entity-1="ent0037" data-entity-2="ent0012" data-link-type="dependency" data-source-line="64" id="lnk39"><path d="M1231.6107,82.12 C1231.6107,136.85 1231.6107,231.27 1231.6107,278.39" fill="none" id="User-to-AppGW" style="stroke:#181818;stroke-width:1;"/><polygon fill="#181818" points="1231.6107,284.39,1235.6107,275.39,1231.6107,279.39,1227.6107,275.39,1231.6107,284.39" style="stroke:#181818;stroke-width:1;"/><text fill="#000000" font-family="sans-serif" font-size="13" lengthAdjust="spacing" textLength="131.1235" x="1232.6107" y="124.8669">HTTPS (finflow.com)</text></g><!--link AppGW to IngPub--><g class="link" data-entity-1="ent0012" data-entity-2="ent0021" data-link-type="dependency" data-source-line="65" id="lnk40"><path d="M1233.3907,337.54 C1236.4807,381.69 1242.3322,465.4246 1244.9722,503.1846" fill="none" id="AppGW-to-IngPub" style="stroke:#181818;stroke-width:1;"/><polygon fill="#181818" points="1245.3907,509.17,1248.7532,499.9129,1245.0419,504.1822,1240.7727,500.4709,1245.3907,509.17" style="stroke:#181818;stroke-width:1;"/><text fill="#000000" font-family="sans-serif" font-size="13" lengthAdjust="spacing" textLength="134.9512" x="1237.6107" y="382.4569">Routing (WAF Clean)</text></g><!--link IngPub to API--><g class="link" data-entity-1="ent0021" data-entity-2="ent0019" data-link-type="dependency" data-source-line="66" id="lnk41"><path d="M1247.5607,545.98 C1249.2807,577.85 1252.6055,639.1388 1254.3355,671.0188" fill="none" id="IngPub-to-API" style="stroke:#181818;stroke-width:1;"/><polygon fill="#181818" points="1254.6607,677.01,1258.1671,667.8065,1254.3897,672.0173,1250.1789,668.24,1254.6607,677.01" style="stroke:#181818;stroke-width:1;"/><text fill="#000000" font-family="sans-serif" font-size="13" lengthAdjust="spacing" textLength="33.4966" x="1251.6107" y="590.7369">HTTP</text></g><!--link Admin to VPN--><g class="link" data-entity-1="ent0038" data-entity-2="ent0032" data-link-type="dependency" data-source-line="69" id="lnk42"><path d="M1911.6107,82.12 C1911.6107,140.28 1911.6107,244.03 1911.6107,286.6" fill="none" id="Admin-to-VPN" style="stroke:#181818;stroke-width:1;stroke-dasharray:7,7;"/><polygon fill="#181818" points="1911.6107,292.6,1915.6107,283.6,1911.6107,287.6,1907.6107,283.6,1911.6107,292.6" style="stroke:#181818;stroke-width:1;"/><text fill="#000000" font-family="sans-serif" font-size="13" lengthAdjust="spacing" textLength="66.6187" x="1912.6107" y="124.8669">Tunel VPN</text></g><!--link VPN to IngPriv--><g class="link" data-entity-1="ent0032" data-entity-2="ent0022" data-link-type="dependency" data-source-line="70" id="lnk43"><path d="M1891.7207,329.64 C1846.0407,369.96 1738.5493,464.8199 1692.9293,505.0799" fill="none" id="VPN-to-IngPriv" style="stroke:#181818;stroke-width:1;stroke-dasharray:7,7;"/><polygon fill="#181818" points="1688.4307,509.05,1697.8254,506.0939,1692.1796,505.7416,1692.5319,500.0957,1688.4307,509.05" style="stroke:#181818;stroke-width:1;"/><text fill="#000000" font-family="sans-serif" font-size="13" lengthAdjust="spacing" textLength="99.6963" x="1846.6107" y="382.4569">Dost&#281;p do sieci</text></g><!--link IngPriv to Dash--><g class="link" data-entity-1="ent0022" data-entity-2="ent0020" data-link-type="dependency" data-source-line="71" id="lnk44"><path d="M1622.4707,546.17 C1603.9307,554.35 1582.9007,565.06 1565.6107,577.67 C1525.3307,607.06 1491.2696,647.7025 1472.2196,672.3525" fill="none" id="IngPriv-to-Dash" style="stroke:#181818;stroke-width:1;stroke-dasharray:7,7;"/><polygon fill="#181818" points="1468.5507,677.1,1477.2191,672.4247,1471.6081,673.1438,1470.8891,667.5328,1468.5507,677.1" style="stroke:#181818;stroke-width:1;"/><text fill="#000000" font-family="sans-serif" font-size="13" lengthAdjust="spacing" textLength="207.9111" x="1566.6107" y="590.7369">HTTPS (grafana.finflow.internal)</text></g><!--link VPN to Blob--><g class="link" data-entity-1="ent0032" data-entity-2="ent0029" data-link-type="dependency" data-source-line="72" id="lnk45"><path d="M1945.1407,329.69 C2025.6307,372.44 2235.0807,486.84 2396.6107,602.67 C2425.4107,623.32 2451.5297,645.7665 2472.7697,664.9665" fill="none" id="VPN-to-Blob" style="stroke:#181818;stroke-width:1;stroke-dasharray:7,7;"/><polygon fill="#181818" points="2477.2207,668.99,2473.2265,659.9874,2473.5115,665.6371,2467.8618,665.9221,2477.2207,668.99" style="stroke:#181818;stroke-width:1;"/><text fill="#000000" font-family="sans-serif" font-size="13" lengthAdjust="spacing" textLength="241.0967" x="2312.6107" y="532.1069">Bezpo&#347;redni dost&#281;p do raport&#243;w PDF</text></g><!--link API to Redis--><g class="link" data-entity-1="ent0019" data-entity-2="ent0028" data-link-type="dependency" data-source-line="75" id="lnk46"><path d="M1262.5407,677.06 C1272.5807,653.37 1293.6607,613.26 1326.6107,596.33 C1360.6107,578.86 1374.3907,596.12 1412.6107,596.33 C1539.2807,597.03 1866.0907,552.98 1982.6107,602.67 C2012.2907,615.33 2033.6294,637.986 2049.8394,659.776" fill="none" id="API-to-Redis" style="stroke:#181818;stroke-width:1;"/><polygon fill="#181818" points="2053.4207,664.59,2051.2581,654.9815,2050.4363,660.5783,2044.8395,659.7565,2053.4207,664.59" style="stroke:#181818;stroke-width:1;"/><text fill="#000000" font-family="sans-serif" font-size="13" lengthAdjust="spacing" textLength="84.5508" x="1327.6107" y="590.7369">Cache Check</text></g><!--link API to DB--><g class="link" data-entity-1="ent0019" data-entity-2="ent0027" data-link-type="dependency" data-source-line="76" id="lnk47"><path d="M1267.1407,677.02 C1282.0307,655.02 1310.1807,619.14 1344.6107,602.67 C1374.1907,588.52 1385.3507,597.74 1418.1107,596.33 C1449.6407,594.97 1457.5807,595.03 1489.1107,596.33 C1523.2007,597.74 1532.0407,596.56 1565.6107,602.67 C1653.7507,618.71 1746.6603,646.6275 1812.1103,668.1275" fill="none" id="API-to-DB" style="stroke:#181818;stroke-width:1;"/><polygon fill="#181818" points="1817.8107,670,1810.5085,663.391,1813.0604,668.4396,1808.0118,670.9914,1817.8107,670" style="stroke:#181818;stroke-width:1;"/><text fill="#000000" font-family="sans-serif" font-size="13" lengthAdjust="spacing" textLength="69.3672" x="1419.1107" y="590.7369">SQL Query</text></g><!--link API to Func--><g class="link" data-entity-1="ent0019" data-entity-2="ent0030" data-link-type="dependency" data-source-line="77" id="lnk48"><path d="M1267.4507,713.93 C1282.6607,734.8 1311.1107,768.99 1344.6107,785.62 C1473.4507,849.58 1895.3019,881.5933 2077.8819,892.7733" fill="none" id="API-to-Func" style="stroke:#181818;stroke-width:1;"/><polygon fill="#181818" points="2083.8707,893.14,2075.132,888.5974,2078.88,892.8344,2074.643,896.5825,2083.8707,893.14" style="stroke:#181818;stroke-width:1;"/><text fill="#000000" font-family="sans-serif" font-size="13" lengthAdjust="spacing" textLength="160.3037" x="1408.6107" y="806.6869">Trigger (Generuj Raport)</text></g><!--reverse link Blob to Func--><g class="link" data-entity-1="ent0029" data-entity-2="ent0030" data-link-type="dependency" data-source-line="78" id="lnk50"><path d="M2472.6813,726.2443 C2451.6413,745.1843 2425.8307,766.78 2396.6107,785.62 C2347.1307,817.53 2287.2507,846.55 2241.1407,867.07" fill="none" id="Blob-backto-Func" style="stroke:#181818;stroke-width:1;"/><polygon fill="#181818" points="2477.1407,722.23,2467.7755,725.2785,2473.4245,725.5752,2473.1278,731.2243,2477.1407,722.23" style="stroke:#181818;stroke-width:1;"/><text fill="#000000" font-family="sans-serif" font-size="13" lengthAdjust="spacing" textLength="162.373" x="2379.6107" y="806.6869">Zapisz PDF (Private Link)</text></g><!--link API to KV--><g class="link" data-entity-1="ent0019" data-entity-2="ent0004" data-link-type="dependency" data-source-line="81" id="lnk51"><path d="M1184.3807,696.93 C1059.8507,700.45 797.3707,720.09 603.6107,818.62 C574.3207,833.51 551.8812,857.1672 536.8112,875.5772" fill="none" id="API-to-KV" style="stroke:#181818;stroke-width:1;stroke-dasharray:7,7;"/><polygon fill="#181818" points="533.0107,880.22,541.8067,875.7894,536.1778,876.351,535.6162,870.722,533.0107,880.22" style="stroke:#181818;stroke-width:1;"/><text fill="#000000" font-family="sans-serif" font-size="13" lengthAdjust="spacing" textLength="88.1309" x="653.6107" y="806.6869">Pobierz Has&#322;a</text></g><!--link API to DNS_DB--><g class="link" data-entity-1="ent0019" data-entity-2="ent0034" data-link-type="dependency" data-source-line="82" id="lnk52"><path d="M1266.6007,713.9 C1281.3307,735.44 1309.7107,771.01 1344.6107,785.62 C1360.8407,792.41 2599.2107,781.14 2611.6107,793.62 C2669.3907,851.77 2645.3107,903.34 2611.6107,978.06 C2592.3207,1020.83 2552.8935,1050.7165 2522.0435,1069.5265" fill="none" id="API-to-DNS_DB" style="stroke:#181818;stroke-width:1;stroke-dasharray:7,7;"/><polygon fill="#181818" points="2516.9207,1072.65,2526.6873,1071.3799,2521.1897,1070.0471,2522.5226,1064.5495,2516.9207,1072.65" style="stroke:#181818;stroke-width:1;"/><text fill="#000000" font-family="sans-serif" font-size="13" lengthAdjust="spacing" textLength="157.3774" x="2646.6107" y="903.3369">Resolve DB IP (10.0.3.x)</text></g><!--link Func to DNS_BLOB--><g class="link" data-entity-1="ent0030" data-entity-2="ent0035" data-link-type="dependency" data-source-line="83" id="lnk53"><path d="M2167.6107,930.36 C2167.6107,970.74 2167.6107,1034.47 2167.6107,1066.81" fill="none" id="Func-to-DNS_BLOB" style="stroke:#181818;stroke-width:1;stroke-dasharray:7,7;"/><polygon fill="#181818" points="2167.6107,1072.81,2171.6107,1063.81,2167.6107,1067.81,2163.6107,1063.81,2167.6107,1072.81" style="stroke:#181818;stroke-width:1;"/><text fill="#000000" font-family="sans-serif" font-size="13" lengthAdjust="spacing" textLength="167.1846" x="2168.6107" y="999.1269">Resolve Blob IP (10.0.3.y)</text></g><?plantuml-src bLPBSwD64BxpAxfyM8k3sFXHUz1Xgn38MY89MC1IMNOgDK9ZUI8yGp5WHqxvaDJ-Y3n-HeuvnlvVwU6rabz9K9K4zDSztL-_9DUCfoGZrn2BwrHmolCmtoGKCXhdXAyIgcbn8eebx9btHKR1AXywOR6GSSRId0ckxy5FcWPuxSFS3EOFN-ovwJe3YBp7lq9puZt-RZaFNy21iJSq9qu9JKcy9YiAUnF2yVSQ3uPt4DAuo5Y-KHQXliwhWqTq0rDI9FbtG2ICfa_b4y5PBZ9u3sQQWiCbMrtbiWJNegSQbk0vOPnc4D0LatcsWOvf1NgfWpSb_hxytdLvwWwY7jnmcdSl6RzCn2rq3hunoi_xWm_wjlVjpJw4KJ0uCU6W1_vfV-nOSzU4ZZsPwotc4XE1zf5SjDq3gKuWgyRw0Le_FDwnhYukSaoNYhO7RZZiOUmBKV0bV8eYFuJEyV6HVi53KMGnLSASPcXtnyGvKfQmcAXimf3az9PiBdXdPfv05_nYWJ9m_9gOD1tEMkrxxNc0Xpsml8b_6WsGpr7uB-6jPHtUuVyCxp8Jror55_nTutXb_ecD9PwBlc3v5X89U7h8Jdfd8bidWYnV0fLiJLYS2Kcp6nPJ9CHtAc9yvsLuHJb9818YmMY76Rd4eg_ej8cyUgPs_-pDinVxCFBSAF36W-0CWbFhqwdsmi6hZ4eyiKfXTI2-nCStm8sxN-4Pkz5UTk-bz1_rm3PTpBqpzyRUpCGgxuBhWUD6Wm0xv-rwM9ASr0Lnz1yBmgPyqzOrc34cHLvmCr5zkLKaQwczogWwTK4aEkCBcICHuUSnDe2A78iA1doP2iPpz4MbhF-ARa2NJ895uYlwgdA9sT6NE9hAkWlh6um02po7JZyH2_rLIqhwUaHroPU3xgJWiMfjPAKpTP4ZHTOg8_NmHbiAyMPIZtjWsXF7TV3PjBurNylXJWy-pTpvr7SR11RbOLYL6BxLTalhlbadVd0sCoFt36mN9zbeV6hDmVR0dZlcuy-uOqpe3-RrE5KJQdTELz4tx2aJSznmScUvf9KqONnjf5NkfT6ar23AWe6hiUfLD_n-A_axkWlC1W8HVSluKjnA0mbejVfZRqklNXe6gpkjXM6BrF4Z0oHMwsnlb32r6pjDWLS9EyNnqo3yZCJYbhCrT93AIcukhndNj7teThjmO9GJ0aPZP-16k7IQ_NEcAxccZ44NdURTZzLyXrwpFHfVaGDTgsGDifea20r4aJE-Wd9XM0abNDTgOMlLTsgRZLE7jLC-rfCtSvsHMRbVUbIw3uPIDZwg0a7bgE0qAOj5FJUoUZwXtCRiFVoMmbA0P3HcMYDge6hKVWriLKrXusaoz1tpgibGfq_lKl7uHqQNdE41xK4PIKMM__tdBVZsIHFPaQ7-wAY0PeEP-_1h59IRlczQeu5hrm4Y7zroY24vrTpeLPC3h2iQhtS1TX-bE9BWSq6pJIMhYLMTgyX1w0gps1bI_4DJ_011wPckbV9kaNRRMEOaPV9EEGpjP1bZ2UkD_yT6EQk7gj47hRS6iZ6Qehul5encT_29oCTVI2khcaDL0vKYkQ7AQSTlH_cFjIiDL7N45hZqRGk-qVy1?></g></svg>